<svg xmlns="http://www.w3.org/2000/svg" xmlns:xlink="http://www.w3.org/1999/xlink" width="1017" zoomAndPan="magnify" viewBox="0 0 762.75 762.749994" height="1017" preserveAspectRatio="xMidYMid meet" version="1.0"><defs><g></g><clipPath id="29c2a0eacf"><path d="M 155 0 L 552 0 L 552 762.5 L 155 762.5 Z M 155 0 " clip-rule="nonzero"></path></clipPath><clipPath id="450497d54a"><path d="M 0.707031 0 L 396.339844 0 L 396.339844 762.46875 L 0.707031 762.46875 Z M 0.707031 0 " clip-rule="nonzero"></path></clipPath><clipPath id="4d3815d2fb"><path d="M 19.765625 126.277344 L 126.457031 126.277344 L 126.457031 233 L 19.765625 233 Z M 19.765625 126.277344 " clip-rule="nonzero"></path></clipPath><clipPath id="067538df58"><path d="M 126.4375 179.628906 C 126.4375 209.101562 102.558594 232.984375 73.085938 232.984375 C 43.613281 232.984375 19.765625 209.101562 19.765625 179.628906 C 19.765625 150.15625 43.648438 126.277344 73.121094 126.277344 C 102.59375 126.277344 126.4375 150.15625 126.4375 179.628906 " clip-rule="nonzero"></path></clipPath><clipPath id="3498563c1b"><path d="M 0.765625 0.277344 L 107.457031 0.277344 L 107.457031 107 L 0.765625 107 Z M 0.765625 0.277344 " clip-rule="nonzero"></path></clipPath><clipPath id="ba6b77a8f2"><path d="M 107.4375 53.628906 C 107.4375 83.101562 83.558594 106.984375 54.085938 106.984375 C 24.613281 106.984375 0.765625 83.101562 0.765625 53.628906 C 0.765625 24.15625 24.648438 0.277344 54.121094 0.277344 C 83.59375 0.277344 107.4375 24.15625 107.4375 53.628906 " clip-rule="nonzero"></path></clipPath><clipPath id="c80b111423"><rect x="0" width="108" y="0" height="107"></rect></clipPath><clipPath id="e4f6e4adaf"><rect x="0" width="397" y="0" height="763"></rect></clipPath><clipPath id="62acd1e940"><rect x="0" width="397" y="0" height="763"></rect></clipPath></defs><g clip-path="url(#29c2a0eacf)"><g transform="matrix(1, 0, 0, 1, 155, -0.000000000000001601)"><g clip-path="url(#62acd1e940)"><g clip-path="url(#450497d54a)"><g transform="matrix(1, 0, 0, 1, 0, -0.000000000000001601)"><g clip-path="url(#e4f6e4adaf)"><g fill="#0e2135" fill-opacity="1"><g transform="translate(0.946626, 603.212491)"><g><path d="M 278.609375 -477.078125 L 356.21875 -477.078125 L 356.21875 0 L 278.609375 0 L 278.609375 -39.75 C 268.429688 -25.550781 255.601562 -14 240.125 -5.09375 C 224.644531 3.808594 206.726562 8.265625 186.375 8.265625 C 163.269531 8.265625 141.644531 3.917969 121.5 -4.765625 C 101.351562 -13.460938 83.59375 -25.492188 68.21875 -40.859375 C 52.84375 -56.234375 40.804688 -73.992188 32.109375 -94.140625 C 23.421875 -114.285156 19.078125 -135.914062 19.078125 -159.03125 C 19.078125 -182.132812 23.421875 -203.757812 32.109375 -223.90625 C 40.804688 -244.050781 52.84375 -261.8125 68.21875 -277.1875 C 83.59375 -292.5625 101.351562 -304.59375 121.5 -313.28125 C 141.644531 -321.976562 163.269531 -326.328125 186.375 -326.328125 C 206.726562 -326.328125 224.644531 -321.925781 240.125 -313.125 C 255.601562 -304.320312 268.429688 -292.710938 278.609375 -278.296875 Z M 187.328125 -66.46875 C 203.867188 -66.46875 218.5 -70.601562 231.21875 -78.875 C 243.945312 -87.144531 253.914062 -98.328125 261.125 -112.421875 C 268.332031 -126.523438 271.9375 -142.0625 271.9375 -159.03125 C 271.9375 -176.207031 268.332031 -191.84375 261.125 -205.9375 C 253.914062 -220.039062 243.894531 -231.226562 231.0625 -239.5 C 218.238281 -247.769531 203.660156 -251.90625 187.328125 -251.90625 C 171.003906 -251.90625 156.109375 -247.710938 142.640625 -239.328125 C 129.179688 -230.953125 118.472656 -219.769531 110.515625 -205.78125 C 102.566406 -191.789062 98.59375 -176.207031 98.59375 -159.03125 C 98.59375 -141.851562 102.617188 -126.265625 110.671875 -112.265625 C 118.734375 -98.273438 129.492188 -87.144531 142.953125 -78.875 C 156.421875 -70.601562 171.210938 -66.46875 187.328125 -66.46875 Z M 187.328125 -66.46875 "></path></g></g></g><g clip-path="url(#4d3815d2fb)"><g clip-path="url(#067538df58)"><g transform="matrix(1, 0, 0, 1, 19, 126)"><g clip-path="url(#c80b111423)"><g clip-path="url(#3498563c1b)"><g clip-path="url(#ba6b77a8f2)"><path fill="#ff9640" d="M 0.765625 0.277344 L 107.457031 0.277344 L 107.457031 106.964844 L 0.765625 106.964844 Z M 0.765625 0.277344 " fill-opacity="1" fill-rule="nonzero"></path></g></g></g></g></g></g></g></g></g></g></g></g></svg>