<svg xmlns="http://www.w3.org/2000/svg" xmlns:xlink="http://www.w3.org/1999/xlink" width="845" zoomAndPan="magnify" viewBox="0 0 633.75 157.5" height="210" preserveAspectRatio="xMidYMid meet" version="1.0"><defs><g></g><clipPath id="33ee775943"><path d="M 0.878906 15 L 630 15 L 630 137 L 0.878906 137 Z M 0.878906 15 " clip-rule="nonzero"></path></clipPath><clipPath id="929865557f"><path d="M 0.878906 0.0703125 L 629.363281 0.0703125 L 629.363281 121.84375 L 0.878906 121.84375 Z M 0.878906 0.0703125 " clip-rule="nonzero"></path></clipPath><clipPath id="7465995fd9"><path d="M 489 44 L 542 44 L 542 121.84375 L 489 121.84375 Z M 489 44 " clip-rule="nonzero"></path></clipPath><clipPath id="88c25d1c08"><rect x="0" width="630" y="0" height="122"></rect></clipPath><clipPath id="18846de482"><path d="M 607.835938 78.960938 L 626.210938 78.960938 L 626.210938 97.410156 L 607.835938 97.410156 Z M 607.835938 78.960938 " clip-rule="nonzero"></path></clipPath><clipPath id="fe700e2fb2"><path d="M 626.207031 88.152344 C 626.207031 93.226562 622.09375 97.339844 617.019531 97.339844 C 611.941406 97.339844 607.835938 93.226562 607.835938 88.152344 C 607.835938 83.074219 611.949219 78.960938 617.023438 78.960938 C 622.101562 78.960938 626.207031 83.074219 626.207031 88.152344 " clip-rule="nonzero"></path></clipPath><clipPath id="4b27c3a576"><path d="M 0.835938 0.960938 L 19.210938 0.960938 L 19.210938 19.410156 L 0.835938 19.410156 Z M 0.835938 0.960938 " clip-rule="nonzero"></path></clipPath><clipPath id="5d0a2215c3"><path d="M 19.207031 10.152344 C 19.207031 15.226562 15.09375 19.339844 10.019531 19.339844 C 4.941406 19.339844 0.835938 15.226562 0.835938 10.152344 C 0.835938 5.074219 4.949219 0.960938 10.023438 0.960938 C 15.101562 0.960938 19.207031 5.074219 19.207031 10.152344 " clip-rule="nonzero"></path></clipPath><clipPath id="870ce3b69f"><rect x="0" width="20" y="0" height="20"></rect></clipPath><clipPath id="269d1d661f"><rect x="0" width="630" y="0" height="122"></rect></clipPath></defs><g clip-path="url(#33ee775943)"><g transform="matrix(1, 0, 0, 1, -0.000000000000000111, 15)"><g clip-path="url(#269d1d661f)"><g clip-path="url(#929865557f)"><g transform="matrix(1, 0, 0, 1, -0.000000000000000111, -0.000000000000026645)"><g clip-path="url(#88c25d1c08)"><g fill="#f5f7fa" fill-opacity="1"><g transform="translate(0.878165, 96.230743)"><g><path d="M 32.9375 -51.9375 C 37.851562 -51.9375 42.332031 -50.738281 46.375 -48.34375 C 50.414062 -45.957031 53.632812 -42.75 56.03125 -38.71875 C 58.425781 -34.695312 59.625 -30.242188 59.625 -25.359375 C 59.625 -21.691406 58.929688 -18.238281 57.546875 -15 C 56.160156 -11.769531 54.25 -8.929688 51.8125 -6.484375 C 49.375 -4.046875 46.546875 -2.132812 43.328125 -0.75 C 40.109375 0.621094 36.644531 1.3125 32.9375 1.3125 C 29.769531 1.3125 26.960938 0.597656 24.515625 -0.828125 C 22.078125 -2.265625 20.035156 -4.128906 18.390625 -6.421875 L 18.390625 0 L 6.0625 0 L 6.0625 -75.78125 L 18.390625 -75.78125 L 18.390625 -44.203125 C 20.035156 -46.492188 22.078125 -48.351562 24.515625 -49.78125 C 26.960938 -51.21875 29.769531 -51.9375 32.9375 -51.9375 Z M 32.796875 -10.609375 C 35.421875 -10.609375 37.800781 -11.269531 39.9375 -12.59375 C 42.070312 -13.925781 43.78125 -15.703125 45.0625 -17.921875 C 46.34375 -20.148438 46.984375 -22.628906 46.984375 -25.359375 C 46.984375 -28.054688 46.34375 -30.523438 45.0625 -32.765625 C 43.78125 -35.003906 42.0625 -36.78125 39.90625 -38.09375 C 37.757812 -39.40625 35.390625 -40.0625 32.796875 -40.0625 C 30.234375 -40.0625 27.941406 -39.394531 25.921875 -38.0625 C 23.898438 -36.738281 22.316406 -34.957031 21.171875 -32.71875 C 20.023438 -30.476562 19.453125 -28.023438 19.453125 -25.359375 C 19.453125 -22.628906 20.023438 -20.144531 21.171875 -17.90625 C 22.316406 -15.664062 23.898438 -13.890625 25.921875 -12.578125 C 27.941406 -11.265625 30.234375 -10.609375 32.796875 -10.609375 Z M 32.796875 -10.609375 "></path></g></g></g><g fill="#f5f7fa" fill-opacity="1"><g transform="translate(63.52872, 96.230743)"><g><path d="M 28.296875 1.3125 C 23.648438 1.3125 19.414062 0.117188 15.59375 -2.265625 C 11.769531 -4.660156 8.71875 -7.878906 6.4375 -11.921875 C 4.164062 -15.960938 3.03125 -20.425781 3.03125 -25.3125 C 3.03125 -28.976562 3.6875 -32.421875 5 -35.640625 C 6.3125 -38.859375 8.117188 -41.6875 10.421875 -44.125 C 12.734375 -46.570312 15.421875 -48.484375 18.484375 -49.859375 C 21.554688 -51.242188 24.828125 -51.9375 28.296875 -51.9375 C 32.234375 -51.9375 35.84375 -51.101562 39.125 -49.4375 C 42.414062 -47.769531 45.203125 -45.488281 47.484375 -42.59375 C 49.773438 -39.695312 51.441406 -36.394531 52.484375 -32.6875 C 53.535156 -28.976562 53.773438 -25.101562 53.203125 -21.0625 L 16.265625 -21.0625 C 16.734375 -19.175781 17.503906 -17.484375 18.578125 -15.984375 C 19.660156 -14.492188 21.023438 -13.300781 22.671875 -12.40625 C 24.328125 -11.507812 26.203125 -11.046875 28.296875 -11.015625 C 30.453125 -10.984375 32.410156 -11.492188 34.171875 -12.546875 C 35.941406 -13.609375 37.414062 -15.050781 38.59375 -16.875 L 51.1875 -13.9375 C 49.125 -9.457031 46.054688 -5.796875 41.984375 -2.953125 C 37.910156 -0.109375 33.347656 1.3125 28.296875 1.3125 Z M 15.859375 -30.3125 L 40.71875 -30.3125 C 40.351562 -32.332031 39.570312 -34.160156 38.375 -35.796875 C 37.175781 -37.429688 35.703125 -38.734375 33.953125 -39.703125 C 32.203125 -40.679688 30.316406 -41.171875 28.296875 -41.171875 C 26.273438 -41.171875 24.40625 -40.691406 22.6875 -39.734375 C 20.96875 -38.773438 19.507812 -37.476562 18.3125 -35.84375 C 17.113281 -34.207031 16.296875 -32.363281 15.859375 -30.3125 Z M 15.859375 -30.3125 "></path></g></g></g><g fill="#f5f7fa" fill-opacity="1"><g transform="translate(120.065792, 96.230743)"><g><path d="M 6.0625 0 L 6.0625 -75.78125 L 18.390625 -75.78125 L 18.390625 0 Z M 6.0625 0 "></path></g></g></g><g fill="#f5f7fa" fill-opacity="1"><g transform="translate(144.519719, 96.230743)"><g><path d="M 28.296875 1.3125 C 23.648438 1.3125 19.414062 0.117188 15.59375 -2.265625 C 11.769531 -4.660156 8.71875 -7.878906 6.4375 -11.921875 C 4.164062 -15.960938 3.03125 -20.425781 3.03125 -25.3125 C 3.03125 -28.976562 3.6875 -32.421875 5 -35.640625 C 6.3125 -38.859375 8.117188 -41.6875 10.421875 -44.125 C 12.734375 -46.570312 15.421875 -48.484375 18.484375 -49.859375 C 21.554688 -51.242188 24.828125 -51.9375 28.296875 -51.9375 C 32.234375 -51.9375 35.84375 -51.101562 39.125 -49.4375 C 42.414062 -47.769531 45.203125 -45.488281 47.484375 -42.59375 C 49.773438 -39.695312 51.441406 -36.394531 52.484375 -32.6875 C 53.535156 -28.976562 53.773438 -25.101562 53.203125 -21.0625 L 16.265625 -21.0625 C 16.734375 -19.175781 17.503906 -17.484375 18.578125 -15.984375 C 19.660156 -14.492188 21.023438 -13.300781 22.671875 -12.40625 C 24.328125 -11.507812 26.203125 -11.046875 28.296875 -11.015625 C 30.453125 -10.984375 32.410156 -11.492188 34.171875 -12.546875 C 35.941406 -13.609375 37.414062 -15.050781 38.59375 -16.875 L 51.1875 -13.9375 C 49.125 -9.457031 46.054688 -5.796875 41.984375 -2.953125 C 37.910156 -0.109375 33.347656 1.3125 28.296875 1.3125 Z M 15.859375 -30.3125 L 40.71875 -30.3125 C 40.351562 -32.332031 39.570312 -34.160156 38.375 -35.796875 C 37.175781 -37.429688 35.703125 -38.734375 33.953125 -39.703125 C 32.203125 -40.679688 30.316406 -41.171875 28.296875 -41.171875 C 26.273438 -41.171875 24.40625 -40.691406 22.6875 -39.734375 C 20.96875 -38.773438 19.507812 -37.476562 18.3125 -35.84375 C 17.113281 -34.207031 16.296875 -32.363281 15.859375 -30.3125 Z M 15.859375 -30.3125 "></path></g></g></g><g fill="#f5f7fa" fill-opacity="1"><g transform="translate(201.058031, 96.230743)"><g><path d="M 46.28125 -50.53125 L 58.609375 -50.53125 L 51.53125 0 L 39.203125 0 L 39.515625 -6.265625 C 37.796875 -4.003906 35.707031 -2.175781 33.25 -0.78125 C 30.789062 0.613281 28.007812 1.3125 24.90625 1.3125 C 21.164062 1.3125 17.765625 0.601562 14.703125 -0.8125 C 11.640625 -2.226562 9.035156 -4.179688 6.890625 -6.671875 C 4.753906 -9.160156 3.222656 -12.035156 2.296875 -15.296875 C 1.367188 -18.566406 1.175781 -22.070312 1.71875 -25.8125 C 2.21875 -29.414062 3.351562 -32.800781 5.125 -35.96875 C 6.894531 -39.132812 9.132812 -41.910156 11.84375 -44.296875 C 14.5625 -46.691406 17.585938 -48.5625 20.921875 -49.90625 C 24.253906 -51.257812 27.722656 -51.9375 31.328125 -51.9375 C 34.660156 -51.9375 37.546875 -51.191406 39.984375 -49.703125 C 42.429688 -48.222656 44.425781 -46.34375 45.96875 -44.0625 Z M 26.265625 -10.5625 C 28.859375 -10.5625 31.265625 -11.21875 33.484375 -12.53125 C 35.710938 -13.84375 37.5625 -15.617188 39.03125 -17.859375 C 40.5 -20.097656 41.414062 -22.566406 41.78125 -25.265625 C 42.15625 -27.992188 41.921875 -30.476562 41.078125 -32.71875 C 40.234375 -34.957031 38.894531 -36.734375 37.0625 -38.046875 C 35.226562 -39.359375 33.015625 -40.015625 30.421875 -40.015625 C 27.785156 -40.015625 25.304688 -39.347656 22.984375 -38.015625 C 20.660156 -36.679688 18.710938 -34.90625 17.140625 -32.6875 C 15.578125 -30.46875 14.613281 -27.992188 14.25 -25.265625 C 13.875 -22.535156 14.164062 -20.054688 15.125 -17.828125 C 16.09375 -15.609375 17.550781 -13.84375 19.5 -12.53125 C 21.457031 -11.21875 23.710938 -10.5625 26.265625 -10.5625 Z M 26.265625 -10.5625 "></path></g></g></g><g fill="#f5f7fa" fill-opacity="1"><g transform="translate(261.58655, 96.230743)"><g><path d="M 24 -61.140625 L 22.484375 -50.53125 L 36.28125 -50.53125 L 34.5625 -38.203125 L 20.765625 -38.203125 L 15.40625 0 L 3.078125 0 L 8.4375 -38.203125 L 2.9375 -38.203125 L 4.640625 -50.53125 L 10.15625 -50.53125 L 11.671875 -61.140625 C 12.078125 -64.035156 13.160156 -66.6875 14.921875 -69.09375 C 16.691406 -71.5 18.890625 -73.414062 21.515625 -74.84375 C 24.148438 -76.28125 26.929688 -77 29.859375 -77 C 31.984375 -77 34.019531 -76.5625 35.96875 -75.6875 C 37.925781 -74.8125 39.578125 -73.460938 40.921875 -71.640625 L 30.875 -62.953125 C 30.632812 -63.523438 30.257812 -63.953125 29.75 -64.234375 C 29.25 -64.523438 28.710938 -64.671875 28.140625 -64.671875 C 27.128906 -64.671875 26.21875 -64.320312 25.40625 -63.625 C 24.601562 -62.9375 24.132812 -62.109375 24 -61.140625 Z M 24 -61.140625 "></path></g></g></g><g fill="#f5f7fa" fill-opacity="1"><g transform="translate(298.420235, 96.230743)"><g><path d="M 44.265625 -75.78125 L 56.59375 -75.78125 L 56.59375 0 L 44.265625 0 L 44.265625 -6.3125 C 42.640625 -4.0625 40.597656 -2.226562 38.140625 -0.8125 C 35.679688 0.601562 32.835938 1.3125 29.609375 1.3125 C 25.929688 1.3125 22.492188 0.621094 19.296875 -0.75 C 16.097656 -2.132812 13.273438 -4.046875 10.828125 -6.484375 C 8.390625 -8.929688 6.476562 -11.753906 5.09375 -14.953125 C 3.71875 -18.148438 3.03125 -21.585938 3.03125 -25.265625 C 3.03125 -28.929688 3.71875 -32.363281 5.09375 -35.5625 C 6.476562 -38.769531 8.390625 -41.59375 10.828125 -44.03125 C 13.273438 -46.46875 16.097656 -48.378906 19.296875 -49.765625 C 22.492188 -51.148438 25.929688 -51.84375 29.609375 -51.84375 C 32.835938 -51.84375 35.679688 -51.140625 38.140625 -49.734375 C 40.597656 -48.335938 42.640625 -46.492188 44.265625 -44.203125 Z M 29.765625 -10.5625 C 32.390625 -10.5625 34.710938 -11.21875 36.734375 -12.53125 C 38.753906 -13.84375 40.335938 -15.617188 41.484375 -17.859375 C 42.628906 -20.097656 43.203125 -22.566406 43.203125 -25.265625 C 43.203125 -27.992188 42.628906 -30.476562 41.484375 -32.71875 C 40.335938 -34.957031 38.742188 -36.734375 36.703125 -38.046875 C 34.671875 -39.359375 32.359375 -40.015625 29.765625 -40.015625 C 27.171875 -40.015625 24.800781 -39.347656 22.65625 -38.015625 C 20.519531 -36.679688 18.816406 -34.90625 17.546875 -32.6875 C 16.285156 -30.46875 15.65625 -27.992188 15.65625 -25.265625 C 15.65625 -22.535156 16.296875 -20.054688 17.578125 -17.828125 C 18.859375 -15.609375 20.566406 -13.84375 22.703125 -12.53125 C 24.847656 -11.21875 27.203125 -10.5625 29.765625 -10.5625 Z M 29.765625 -10.5625 "></path></g></g></g><g fill="#f5f7fa" fill-opacity="1"><g transform="translate(361.07079, 96.230743)"><g><path d="M 28.296875 1.3125 C 23.648438 1.3125 19.414062 0.117188 15.59375 -2.265625 C 11.769531 -4.660156 8.71875 -7.878906 6.4375 -11.921875 C 4.164062 -15.960938 3.03125 -20.425781 3.03125 -25.3125 C 3.03125 -28.976562 3.6875 -32.421875 5 -35.640625 C 6.3125 -38.859375 8.117188 -41.6875 10.421875 -44.125 C 12.734375 -46.570312 15.421875 -48.484375 18.484375 -49.859375 C 21.554688 -51.242188 24.828125 -51.9375 28.296875 -51.9375 C 32.234375 -51.9375 35.84375 -51.101562 39.125 -49.4375 C 42.414062 -47.769531 45.203125 -45.488281 47.484375 -42.59375 C 49.773438 -39.695312 51.441406 -36.394531 52.484375 -32.6875 C 53.535156 -28.976562 53.773438 -25.101562 53.203125 -21.0625 L 16.265625 -21.0625 C 16.734375 -19.175781 17.503906 -17.484375 18.578125 -15.984375 C 19.660156 -14.492188 21.023438 -13.300781 22.671875 -12.40625 C 24.328125 -11.507812 26.203125 -11.046875 28.296875 -11.015625 C 30.453125 -10.984375 32.410156 -11.492188 34.171875 -12.546875 C 35.941406 -13.609375 37.414062 -15.050781 38.59375 -16.875 L 51.1875 -13.9375 C 49.125 -9.457031 46.054688 -5.796875 41.984375 -2.953125 C 37.910156 -0.109375 33.347656 1.3125 28.296875 1.3125 Z M 15.859375 -30.3125 L 40.71875 -30.3125 C 40.351562 -32.332031 39.570312 -34.160156 38.375 -35.796875 C 37.175781 -37.429688 35.703125 -38.734375 33.953125 -39.703125 C 32.203125 -40.679688 30.316406 -41.171875 28.296875 -41.171875 C 26.273438 -41.171875 24.40625 -40.691406 22.6875 -39.734375 C 20.96875 -38.773438 19.507812 -37.476562 18.3125 -35.84375 C 17.113281 -34.207031 16.296875 -32.363281 15.859375 -30.3125 Z M 15.859375 -30.3125 "></path></g></g></g><g fill="#f5f7fa" fill-opacity="1"><g transform="translate(417.607863, 96.230743)"><g><path d="M 20.96875 0.90625 C 18.34375 0.738281 15.804688 0.210938 13.359375 -0.671875 C 10.921875 -1.566406 8.757812 -2.789062 6.875 -4.34375 C 4.988281 -5.894531 3.539062 -7.75 2.53125 -9.90625 L 12.9375 -14.34375 C 13.34375 -13.675781 14 -12.960938 14.90625 -12.203125 C 15.8125 -11.441406 16.894531 -10.804688 18.15625 -10.296875 C 19.425781 -9.796875 20.816406 -9.546875 22.328125 -9.546875 C 23.609375 -9.546875 24.828125 -9.722656 25.984375 -10.078125 C 27.148438 -10.429688 28.09375 -10.976562 28.8125 -11.71875 C 29.539062 -12.457031 29.90625 -13.414062 29.90625 -14.59375 C 29.90625 -15.84375 29.472656 -16.8125 28.609375 -17.5 C 27.753906 -18.195312 26.675781 -18.722656 25.375 -19.078125 C 24.082031 -19.429688 22.832031 -19.757812 21.625 -20.0625 C 18.425781 -20.695312 15.453125 -21.6875 12.703125 -23.03125 C 9.960938 -24.382812 7.757812 -26.128906 6.09375 -28.265625 C 4.425781 -30.398438 3.59375 -32.984375 3.59375 -36.015625 C 3.59375 -39.359375 4.472656 -42.238281 6.234375 -44.65625 C 8.003906 -47.082031 10.3125 -48.953125 13.15625 -50.265625 C 16.007812 -51.578125 19.082031 -52.234375 22.375 -52.234375 C 26.382812 -52.234375 30.066406 -51.398438 33.421875 -49.734375 C 36.773438 -48.066406 39.425781 -45.71875 41.375 -42.6875 L 31.625 -36.9375 C 31.15625 -37.738281 30.5 -38.484375 29.65625 -39.171875 C 28.8125 -39.867188 27.847656 -40.441406 26.765625 -40.890625 C 25.691406 -41.347656 24.566406 -41.613281 23.390625 -41.6875 C 21.878906 -41.75 20.5 -41.609375 19.25 -41.265625 C 18 -40.929688 16.992188 -40.359375 16.234375 -39.546875 C 15.484375 -38.742188 15.109375 -37.671875 15.109375 -36.328125 C 15.109375 -35.046875 15.613281 -34.09375 16.625 -33.46875 C 17.632812 -32.84375 18.851562 -32.363281 20.28125 -32.03125 C 21.71875 -31.695312 23.09375 -31.328125 24.40625 -30.921875 C 27.363281 -29.941406 30.148438 -28.742188 32.765625 -27.328125 C 35.378906 -25.921875 37.472656 -24.1875 39.046875 -22.125 C 40.628906 -20.070312 41.390625 -17.613281 41.328125 -14.75 C 41.328125 -11.488281 40.347656 -8.632812 38.390625 -6.1875 C 36.441406 -3.75 33.925781 -1.890625 30.84375 -0.609375 C 27.757812 0.667969 24.46875 1.175781 20.96875 0.90625 Z M 20.96875 0.90625 "></path></g></g></g><g fill="#f5f7fa" fill-opacity="1"><g transform="translate(461.513776, 96.230743)"><g><path d="M 6.0625 -50.53125 L 18.390625 -50.53125 L 18.390625 0 L 6.0625 0 Z M 12.328125 -57.046875 C 10.515625 -57.046875 8.984375 -57.640625 7.734375 -58.828125 C 6.484375 -60.023438 5.859375 -61.535156 5.859375 -63.359375 C 5.859375 -65.140625 6.484375 -66.632812 7.734375 -67.84375 C 8.984375 -69.0625 10.5 -69.671875 12.28125 -69.671875 C 14.0625 -69.671875 15.566406 -69.0625 16.796875 -67.84375 C 18.023438 -66.632812 18.640625 -65.140625 18.640625 -63.359375 C 18.640625 -61.535156 18.035156 -60.023438 16.828125 -58.828125 C 15.617188 -57.640625 14.117188 -57.046875 12.328125 -57.046875 Z M 12.328125 -57.046875 "></path></g></g></g><g clip-path="url(#7465995fd9)"><g fill="#f5f7fa" fill-opacity="1"><g transform="translate(485.967693, 96.230743)"><g><path d="M 43.546875 -50.53125 L 55.875 -50.53125 L 55.875 0.953125 C 55.875 4.597656 55.132812 7.910156 53.65625 10.890625 C 52.175781 13.867188 50.15625 16.425781 47.59375 18.5625 C 45.03125 20.707031 42.097656 22.359375 38.796875 23.515625 C 35.492188 24.679688 32.023438 25.265625 28.390625 25.265625 C 24.859375 25.265625 21.457031 24.539062 18.1875 23.09375 C 14.914062 21.644531 12.023438 19.664062 9.515625 17.15625 C 7.015625 14.644531 5.109375 11.789062 3.796875 8.59375 L 15.0625 3.484375 C 15.726562 5.335938 16.742188 6.960938 18.109375 8.359375 C 19.472656 9.753906 21.046875 10.847656 22.828125 11.640625 C 24.617188 12.429688 26.472656 12.828125 28.390625 12.828125 C 30.347656 12.828125 32.226562 12.554688 34.03125 12.015625 C 35.832031 11.484375 37.457031 10.703125 38.90625 9.671875 C 40.351562 8.648438 41.488281 7.40625 42.3125 5.9375 C 43.132812 4.46875 43.546875 2.804688 43.546875 0.953125 L 43.546875 -6.15625 C 41.960938 -3.9375 39.972656 -2.132812 37.578125 -0.75 C 35.191406 0.621094 32.429688 1.3125 29.296875 1.3125 C 25.660156 1.3125 22.257812 0.621094 19.09375 -0.75 C 15.925781 -2.132812 13.140625 -4.046875 10.734375 -6.484375 C 8.328125 -8.929688 6.441406 -11.753906 5.078125 -14.953125 C 3.710938 -18.148438 3.03125 -21.585938 3.03125 -25.265625 C 3.03125 -28.929688 3.710938 -32.363281 5.078125 -35.5625 C 6.441406 -38.769531 8.328125 -41.59375 10.734375 -44.03125 C 13.140625 -46.46875 15.925781 -48.378906 19.09375 -49.765625 C 22.257812 -51.148438 25.660156 -51.84375 29.296875 -51.84375 C 32.429688 -51.84375 35.191406 -51.160156 37.578125 -49.796875 C 39.972656 -48.429688 41.960938 -46.632812 43.546875 -44.40625 Z M 29.453125 -10.5625 C 32.046875 -10.5625 34.34375 -11.222656 36.34375 -12.546875 C 38.351562 -13.878906 39.929688 -15.664062 41.078125 -17.90625 C 42.222656 -20.144531 42.796875 -22.597656 42.796875 -25.265625 C 42.796875 -27.953125 42.210938 -30.40625 41.046875 -32.625 C 39.890625 -34.851562 38.304688 -36.640625 36.296875 -37.984375 C 34.296875 -39.335938 32.015625 -40.015625 29.453125 -40.015625 C 26.929688 -40.015625 24.625 -39.347656 22.53125 -38.015625 C 20.445312 -36.679688 18.78125 -34.90625 17.53125 -32.6875 C 16.28125 -30.46875 15.65625 -27.992188 15.65625 -25.265625 C 15.65625 -22.535156 16.28125 -20.054688 17.53125 -17.828125 C 18.78125 -15.609375 20.445312 -13.84375 22.53125 -12.53125 C 24.625 -11.21875 26.929688 -10.5625 29.453125 -10.5625 Z M 29.453125 -10.5625 "></path></g></g></g></g><g fill="#f5f7fa" fill-opacity="1"><g transform="translate(547.910923, 96.230743)"><g><path d="M 52.34375 -31.9375 L 52.34375 0 L 40.015625 0 L 40.015625 -28.703125 C 40.015625 -30.679688 39.523438 -32.488281 38.546875 -34.125 C 37.566406 -35.757812 36.257812 -37.054688 34.625 -38.015625 C 33 -38.972656 31.191406 -39.453125 29.203125 -39.453125 C 27.210938 -39.453125 25.398438 -38.972656 23.765625 -38.015625 C 22.140625 -37.054688 20.84375 -35.757812 19.875 -34.125 C 18.914062 -32.488281 18.4375 -30.679688 18.4375 -28.703125 L 18.4375 0 L 6.109375 0 L 6.0625 -50.53125 L 18.390625 -50.53125 L 18.4375 -46.03125 C 20.15625 -47.84375 22.207031 -49.28125 24.59375 -50.34375 C 26.988281 -51.40625 29.566406 -51.9375 32.328125 -51.9375 C 36.003906 -51.9375 39.359375 -51.035156 42.390625 -49.234375 C 45.421875 -47.429688 47.835938 -45.019531 49.640625 -42 C 51.441406 -38.988281 52.34375 -35.632812 52.34375 -31.9375 Z M 52.34375 -31.9375 "></path></g></g></g><g fill="#f5f7fa" fill-opacity="1"><g transform="translate(604.300893, 96.230743)"><g></g></g></g></g></g></g><g clip-path="url(#18846de482)"><g clip-path="url(#fe700e2fb2)"><g transform="matrix(1, 0, 0, 1, 607, 78)"><g clip-path="url(#870ce3b69f)"><g clip-path="url(#4b27c3a576)"><g clip-path="url(#5d0a2215c3)"><path fill="#ff9640" d="M 0.835938 0.960938 L 19.210938 0.960938 L 19.210938 19.335938 L 0.835938 19.335938 Z M 0.835938 0.960938 " fill-opacity="1" fill-rule="nonzero"></path></g></g></g></g></g></g></g></g></g></svg>